<svg xmlns="http://www.w3.org/2000/svg" width="621.499" height="511.961" viewBox="0 0 621.499 511.961"><g transform="translate(137.761 -2050.408)"><path d="M-40.044,2204.941c48.416-51.693,63.706,51.693,119.038,30.579s73.534,30.215,117.946,46.6,65.162-7.645,97.925-39.679,131.028-47.427,154.714,10.557-73.069,228.163-73.069,228.163H0S-88.46,2256.634-40.044,2204.941Z" transform="translate(-675.187 88.356) rotate(-17)" fill="#f8f2f0"/><path d="M-40.044,2204.941c48.416-51.693,63.706,51.693,119.038,30.579s73.534,30.215,117.946,46.6,65.162-7.645,97.925-39.679,131.028-47.427,154.714,10.557-73.069,228.163-73.069,228.163H0S-88.46,2256.634-40.044,2204.941Z" fill="#e6d5d0"/><path d="M496.7,2206.659c-54.1-57.756-71.178,57.757-133,34.166s-82.16,33.758-131.781,52.062-72.805-8.541-109.411-44.334-146.4-52.99-172.861,11.795,81.639,254.925,81.639,254.925H451.955S550.791,2264.416,496.7,2206.659Z" transform="matrix(0.985, 0.174, -0.174, 0.985, 352.714, -3.753)" fill="#f2e9e6" style="mix-blend-mode:soft-light;isolation:isolate"/></g></svg>