<svg xmlns="http://www.w3.org/2000/svg" width="623.245" height="1217.913" viewBox="0 0 623.245 1217.913">
  <g id="Menu-fond" transform="translate(182.742 204.667)">
    <rect id="ACCUEIL_-_Fond" data-name="ACCUEIL - Fond" width="375" height="812" fill="#ba5050"/>
    <g id="Forme" transform="translate(0 29)" style="mix-blend-mode: multiply;isolation: isolate">
      <path id="Gauche" d="M-87.938,3400.113c60.812-.974,80.645,37.211,110.78,65.368s54.862-3.855,79.965,28.205-2.824,51.7,20.449,100.034c10.352,21.5,51.265,54.524,55.685,63.883s10.958,45.126-35.424,39.438-139.432,33.088-176.957,9-9.064-69.708-40.524-103.9-52.708-2.607-94.563-24.066-67.978-60.968-51.881-108.7S-148.751,3401.087-87.938,3400.113Z" transform="translate(258.471 -3633.761)" fill="#f2e9e6" style="mix-blend-mode: soft-light;isolation: isolate"/>
      <path id="Gauche-2" data-name="Gauche" d="M-87.938,3400.113c60.812-.974,80.645,37.211,110.78,65.368s54.862-3.855,79.965,28.205-2.824,51.7,20.449,100.034c10.352,21.5,50.773,53.018,55.685,63.883s10.958,45.126-35.424,39.438-139.432,33.088-176.957,9-9.064-69.708-40.524-103.9-52.708-2.607-94.563-24.066-67.978-60.968-51.881-108.7S-148.751,3401.087-87.938,3400.113Z" transform="translate(243.471 -3600.761)" fill="#f2e9e6" style="mix-blend-mode: soft-light;isolation: isolate"/>
    </g>
    <g id="Forme_2" data-name="Forme 2" transform="translate(-201 900)" style="mix-blend-mode: multiply;isolation: isolate">
      <path id="Gauche-3" data-name="Gauche" d="M-87.938,3400.113c60.812-.974,80.645,37.211,110.78,65.368s54.862-3.855,79.965,28.205-2.824,51.7,20.449,100.034c10.352,21.5,51.265,54.524,55.685,63.883s10.958,45.126-35.424,39.438-139.432,33.088-176.957,9-9.064-69.708-40.524-103.9-52.708-2.607-94.563-24.066-67.978-60.968-51.881-108.7S-148.751,3401.087-87.938,3400.113Z" transform="translate(258.471 -3633.761)" fill="#f2e9e6" style="mix-blend-mode: soft-light;isolation: isolate"/>
      <path id="Gauche-4" data-name="Gauche" d="M-87.938,3400.113c60.812-.974,80.645,37.211,110.78,65.368s54.862-3.855,79.965,28.205-2.824,51.7,20.449,100.034c10.352,21.5,50.773,53.018,55.685,63.883s10.958,45.126-35.424,39.438-139.432,33.088-176.957,9-9.064-69.708-40.524-103.9-52.708-2.607-94.563-24.066-67.978-60.968-51.881-108.7S-148.751,3401.087-87.938,3400.113Z" transform="translate(243.471 -3600.761)" fill="#f2e9e6" style="mix-blend-mode: soft-light;isolation: isolate"/>
    </g>
  </g>
</svg>
