<svg xmlns="http://www.w3.org/2000/svg" width="85.954" height="83.005" viewBox="0 0 85.954 83.005">
  <g id="LOGO" transform="translate(-26.548 -31.399)">
    <g id="Groupe_3" data-name="Groupe 3" transform="translate(26.548 32.256)">
      <path id="Tracé_6" data-name="Tracé 6" d="M0,28.816Z" transform="translate(0 24.515)" fill="#f2e9e6"/>
      <g id="Groupe_1" data-name="Groupe 1" transform="translate(2.183 0)" opacity="0.29">
        <path id="Tracé_3" data-name="Tracé 3" d="M178.015,99.452l-3.06-3.063A33.082,33.082,0,0,1,178.015,99.452Z" transform="translate(-120.035 -72.576)" fill="#884a3d"/>
        <g id="Groupe_5" data-name="Groupe 5">
          <path id="Tracé_4" data-name="Tracé 4" d="M156.548,75.267V58.831h-8.26V75.267H123.425a33.285,33.285,0,1,0,33.123,33.289V83.5h17.534V75.267ZM123.425,133.6a25.053,25.053,0,1,1,24.863-25.048A24.953,24.953,0,0,1,123.425,133.6Zm24.863-47.041L145.233,83.5h3.055Z" transform="translate(-90.311 -59.688)" fill="#884a3d"/>
          <path id="Tracé_5" data-name="Tracé 5" d="M191.3,96.386v11.226L174.958,96.386Z" transform="translate(-130.416 -76.999)" fill="#884a3d"/>
        </g>
      </g>
    </g>
  </g>
</svg>
