<svg xmlns="http://www.w3.org/2000/svg" xmlns:xlink="http://www.w3.org/1999/xlink" width="24" height="23" viewBox="0 0 24 23">
  <defs>
    <clipPath id="clip-path">
      <rect id="Rectangle_17" data-name="Rectangle 17" width="24" height="23" transform="translate(0 0.258)" fill="#fff"/>
    </clipPath>
  </defs>
  <g id="instagram" transform="translate(0 -0.258)" clip-path="url(#clip-path)">
    <path id="iconmonstr-instagram-11" d="M11.917,2.148c3.182,0,3.559.012,4.816.07,3.229.147,4.738,1.679,4.885,4.885.058,1.256.069,1.634.069,4.815s-.012,3.559-.069,4.815c-.148,3.2-1.652,4.738-4.885,4.885-1.257.058-1.633.07-4.816.07s-3.559-.012-4.815-.07c-3.237-.148-4.738-1.687-4.885-4.886-.058-1.256-.07-1.633-.07-4.815s.013-3.558.07-4.815C2.364,3.9,3.869,2.363,7.1,2.217c1.257-.057,1.634-.069,4.815-.069Zm0-2.148C8.68,0,8.275.014,7,.072,2.676.27.271,2.671.072,7,.014,8.275,0,8.68,0,11.917s.014,3.643.072,4.914c.2,4.328,2.6,6.733,6.932,6.932,1.272.058,1.677.072,4.914.072s3.643-.014,4.914-.072c4.324-.2,6.735-2.6,6.931-6.932.059-1.271.072-1.677.072-4.914S23.82,8.275,23.762,7C23.567,2.68,21.163.271,16.831.072,15.559.014,15.153,0,11.917,0Zm0,5.8a6.12,6.12,0,1,0,6.119,6.119A6.119,6.119,0,0,0,11.917,5.8Zm0,10.092a3.972,3.972,0,1,1,3.972-3.972A3.972,3.972,0,0,1,11.917,15.889ZM18.278,4.126a1.43,1.43,0,1,0,1.429,1.43A1.431,1.431,0,0,0,18.278,4.126Z" transform="translate(-0.333 -0.198)" fill="#884a3d"/>
  </g>
</svg>
