<?xml version="1.0" encoding="UTF-8" standalone="no"?>
<svg
   xmlns:dc="http://purl.org/dc/elements/1.1/"
   xmlns:cc="http://creativecommons.org/ns#"
   xmlns:rdf="http://www.w3.org/1999/02/22-rdf-syntax-ns#"
   xmlns:svg="http://www.w3.org/2000/svg"
   xmlns="http://www.w3.org/2000/svg"
   xmlns:sodipodi="http://sodipodi.sourceforge.net/DTD/sodipodi-0.dtd"
   xmlns:inkscape="http://www.inkscape.org/namespaces/inkscape"
   version="1.0"
   width="1276.000000pt"
   height="1280.000000pt"
   viewBox="0 0 1276.000000 1280.000000"
   preserveAspectRatio="xMidYMid meet"
   id="svg1382"
   sodipodi:docname="158348.svg"
   inkscape:version="1.0.1 (3bc2e813f5, 2020-09-07)">
  <metadata
     id="metadata1388">
    <rdf:RDF>
      <cc:Work
         rdf:about="">
        <dc:format>image/svg+xml</dc:format>
        <dc:type
           rdf:resource="http://purl.org/dc/dcmitype/StillImage" />
      </cc:Work>
    </rdf:RDF>
  </metadata>
  <defs
     id="defs1386" />
  <sodipodi:namedview
     pagecolor="#ffffff"
     bordercolor="#666666"
     borderopacity="1"
     objecttolerance="10"
     gridtolerance="10"
     guidetolerance="10"
     inkscape:pageopacity="0"
     inkscape:pageshadow="2"
     inkscape:window-width="1600"
     inkscape:window-height="837"
     id="namedview1384"
     showgrid="false"
     inkscape:zoom="0.069398664"
     inkscape:cx="-606.95485"
     inkscape:cy="-723.82952"
     inkscape:window-x="-8"
     inkscape:window-y="-8"
     inkscape:window-maximized="1"
     inkscape:current-layer="svg1382" />
  <g
     transform="translate(0.000000,1280.000000) scale(0.100000,-0.100000)"
     fill="#000000"
     stroke="none"
     id="g1380">
    <path
       d="M6125 12790 c-38 -5 -144 -13 -235 -20 -1712 -121 -3324 -962 -4431 -2310 -834 -1016 -1337 -2273 -1429 -3565 -6 -88 -15 -201 -21 -252 -12 -118 -12 -349 1 -483 5 -58 14 -175 20 -260 162 -2229 1518 -4237 3535 -5235 731 -361 1511 -575 2315 -635 80 -6 192 -15 250 -20 133 -13 365 -13 483 -1 51 6 164 15 252 21 942 67 1886 361 2710 845 1230 721 2185 1832 2710 3153 100 254 173 476 256 787 110 411 163 701 189 1045 6 80 15 192 20 250 13 134 13 345 0 463 -5 51 -14 157 -20 237 -88 1161 -443 2210 -1063 3140 -848 1272 -2109 2190 -3572 2604 -503 142 -751 186 -1220 216 -93 6 -211 15 -262 20 -106 11 -386 11 -488 0z m539 -41 c6 -5 -9 -44 -38 -99 -42 -80 -49 -101 -57 -183 -4 -50 -9 -110 -9 -133 l0 -41 75 -22 c42 -13 82 -21 89 -18 7 3 18 38 25 79 13 68 17 77 66 126 l53 53 34 -14 c147 -64 639 -287 716 -326 l97 -49 257 22 257 21 80 73 c44 39 82 72 84 72 3 0 173 -81 378 -180 l374 -180 169 0 168 0 117 -69 c334 -198 652 -430 966 -707 177 -156 262 -241 251 -251 -16 -17 -425 142 -663 257 -169 82 -287 152 -340 202 l-31 30 -373 30 -372 29 -74 -73 c-40 -40 -76 -80 -79 -90 -5 -16 48 -158 68 -185 6 -7 39 -13 76 -15 l66 -3 7 -35 c16 -73 22 -240 10 -240 -6 0 -58 27 -114 60 -56 33 -106 61 -112 62 -5 0 -44 -59 -86 -133 -67 -118 -79 -134 -100 -131 -13 1 -53 5 -89 8 -36 4 -69 10 -74 15 -6 5 -22 9 -37 9 -26 0 -46 17 -75 66 -10 17 -16 17 -74 6 -43 -8 -72 -20 -90 -37 -33 -32 -44 -32 -90 5 -35 28 -44 30 -117 30 l-80 0 -10 -34 -10 -34 40 -8 c22 -5 42 -14 44 -20 2 -6 -12 -31 -32 -54 -33 -39 -36 -47 -29 -83 l6 -40 -67 6 c-36 4 -112 23 -168 42 -138 49 -172 56 -232 43 -42 -9 -60 -21 -125 -87 -41 -42 -111 -116 -154 -165 l-80 -88 76 -74 c75 -73 76 -74 129 -74 81 0 196 -37 222 -72 19 -26 26 -28 86 -27 36 0 100 4 141 7 l75 7 106 88 c59 47 117 91 130 95 13 5 70 17 126 27 l102 18 107 -43 107 -43 104 12 c58 7 108 9 113 5 4 -5 13 -26 20 -46 6 -21 34 -73 63 -115 28 -43 77 -138 109 -210 32 -73 79 -165 105 -204 40 -60 50 -83 58 -143 10 -67 11 -71 35 -69 14 2 74 -2 133 -8 60 -6 111 -8 114 -5 3 3 -9 28 -27 56 -22 35 -56 67 -104 99 l-71 48 -84 214 c-45 118 -85 221 -88 230 -3 11 10 22 49 38 l53 22 19 -23 c10 -13 31 -48 46 -78 16 -30 50 -86 77 -125 45 -66 54 -73 154 -125 59 -30 114 -61 123 -69 12 -10 16 -32 16 -89 0 -61 4 -83 24 -116 22 -38 32 -44 127 -79 57 -20 112 -37 121 -37 10 0 59 22 110 50 79 41 97 56 117 93 l24 43 -37 51 c-20 28 -36 55 -36 62 0 7 35 11 109 11 l110 0 88 -96 c87 -96 89 -97 232 -165 l144 -69 -7 -83 -7 -82 81 -80 c44 -44 80 -87 80 -95 0 -9 -16 -31 -35 -50 l-34 -33 -178 77 c-98 43 -243 114 -323 158 -95 53 -155 81 -175 80 -100 -2 -475 -26 -483 -31 -9 -6 -2 -205 8 -214 3 -3 76 -51 162 -107 126 -82 193 -117 335 -176 163 -68 434 -215 463 -249 10 -11 9 -39 -3 -124 -13 -99 -19 -118 -66 -205 -29 -53 -57 -96 -62 -96 -5 0 -49 27 -97 59 -64 43 -134 108 -266 246 l-180 187 -43 -5 c-43 -5 -46 -3 -205 120 l-161 124 -65 -3 c-73 -3 -64 7 -97 -110 l-16 -58 -44 0 c-53 0 -75 19 -75 65 0 18 -3 41 -7 51 -3 9 -133 111 -287 226 -155 115 -281 215 -281 223 0 7 27 45 60 84 58 67 63 71 143 96 57 18 80 30 76 38 -4 7 -25 38 -47 70 -39 56 -40 57 -89 57 -46 0 -59 7 -169 82 l-120 82 -114 -28 -115 -28 -33 25 c-17 14 -84 69 -147 122 l-115 96 -95 -5 c-151 -7 -298 16 -425 65 l-108 42 -136 -13 -136 -12 -134 -95 c-74 -52 -143 -99 -155 -104 -12 -5 -77 -18 -146 -29 -112 -18 -131 -25 -187 -61 -35 -23 -98 -52 -142 -65 -70 -22 -84 -30 -117 -72 -21 -26 -43 -51 -49 -55 -5 -4 -64 -5 -130 -2 l-120 6 -132 -121 c-73 -66 -135 -131 -138 -143 -2 -12 -16 -75 -30 -139 -46 -210 -40 -199 -181 -347 -121 -126 -128 -136 -146 -199 -12 -44 -18 -100 -18 -164 0 -94 2 -102 51 -225 59 -148 192 -414 352 -703 107 -193 116 -207 167 -242 51 -34 62 -37 150 -43 52 -3 104 -8 115 -10 11 -3 80 -52 154 -110 74 -58 142 -105 151 -105 43 0 437 -31 450 -35 8 -3 30 -28 48 -56 l33 -51 48 7 c55 7 46 15 157 -116 l78 -91 41 5 c22 3 59 9 81 13 36 5 43 3 47 -12 10 -33 47 -291 47 -327 0 -45 -104 -191 -194 -270 -40 -35 -66 -66 -66 -78 0 -11 12 -91 26 -177 14 -86 36 -289 49 -451 l23 -294 -25 -86 c-14 -47 -31 -97 -38 -111 -7 -14 -65 -59 -128 -100 l-116 -75 -140 -419 c-78 -230 -141 -427 -141 -437 0 -11 19 -110 41 -222 l42 -202 -27 -190 c-25 -169 -31 -194 -55 -225 -15 -19 -54 -71 -88 -115 l-61 -80 -7 -110 c-4 -60 -16 -139 -27 -174 -11 -35 -16 -67 -11 -71 4 -5 41 -18 81 -30 l72 -21 86 41 87 40 150 0 151 0 187 -60 c103 -33 193 -60 201 -60 23 0 298 149 504 272 l191 114 101 11 c56 6 105 14 110 17 5 3 15 74 22 158 7 84 16 162 20 173 4 11 34 48 66 82 l59 62 123 15 c84 11 131 21 147 33 13 10 57 46 100 80 l76 63 77 0 77 0 225 201 c347 310 326 288 344 367 8 37 22 113 30 170 9 56 25 143 36 192 20 83 29 99 129 247 l107 158 115 10 c104 9 124 15 225 60 92 40 149 76 330 210 l219 161 69 114 c117 196 188 321 183 326 -2 2 -33 16 -68 29 l-63 25 -42 -41 -41 -40 -84 68 c-105 86 -107 87 -124 73 -18 -15 -20 -4 -35 142 -8 75 -8 114 0 127 23 43 12 72 -53 140 -73 77 -116 159 -183 346 -42 119 -47 144 -60 290 -12 135 -12 171 -1 230 9 48 12 103 7 175 -7 115 3 537 14 547 8 9 143 -18 163 -32 16 -12 15 -27 -5 -216 -13 -112 -22 -218 -22 -236 0 -17 20 -76 45 -131 l45 -99 0 -179 c0 -266 18 -394 81 -575 l51 -148 109 -138 c60 -76 116 -142 123 -147 10 -7 28 1 63 27 47 34 54 36 138 39 l89 3 282 310 282 310 17 93 17 93 -36 52 c-20 29 -84 115 -144 192 -124 161 -127 162 -213 99 -34 -25 -54 -33 -61 -26 -5 5 -15 50 -22 98 -10 71 -20 104 -52 162 -26 48 -45 72 -57 72 -10 0 -29 11 -42 25 -30 29 -31 62 -10 215 16 116 20 122 106 166 38 19 49 21 58 10 15 -17 115 -294 137 -379 l18 -68 122 -104 c67 -57 199 -176 293 -265 l171 -162 40 -131 c59 -189 56 -179 86 -329 l27 -137 71 -28 71 -28 -3 -200 c-2 -110 -14 -369 -28 -575 -13 -206 -24 -381 -24 -387 0 -7 18 -22 40 -33 23 -12 43 -27 46 -34 3 -8 -15 -85 -40 -172 -423 -1496 -1354 -2764 -2656 -3617 -951 -622 -2086 -981 -3215 -1016 -527 -16 -1022 24 -1487 119 l-142 30 -125 129 -126 130 -790 246 c-434 135 -809 252 -832 261 -47 17 -314 190 -468 304 -244 179 -443 349 -679 580 -334 327 -597 642 -842 1010 -154 231 -137 178 -195 589 -51 361 -51 363 -88 429 -21 37 -51 109 -66 161 l-29 93 17 136 c10 74 20 139 23 143 3 5 37 28 76 51 l71 42 -6 167 -7 167 105 78 105 78 0 106 0 105 236 310 c130 171 244 318 254 329 17 18 20 17 111 -9 l93 -28 38 43 c20 24 146 246 279 494 134 248 253 467 264 486 22 35 24 35 161 62 l139 27 58 63 58 63 -6 55 c-6 55 -37 124 -142 318 -40 73 -53 88 -105 120 -32 20 -87 55 -121 77 l-62 40 -5 185 -5 185 -179 95 -179 94 7 245 7 245 40 73 40 73 -36 60 c-40 65 -54 77 -166 138 -42 23 -81 48 -86 55 -5 6 -20 58 -33 114 l-23 102 17 181 18 181 -103 136 c-57 75 -108 142 -114 150 -8 11 -38 2 -155 -44 -134 -53 -152 -57 -241 -61 -129 -5 -133 1 -67 98 237 351 459 621 757 923 234 238 444 424 684 605 l107 82 148 0 c117 0 179 -5 301 -27 l154 -27 37 41 c20 23 42 59 48 81 12 41 88 147 140 195 33 32 82 46 155 47 37 0 65 9 121 40 158 87 205 98 540 125 165 14 313 25 328 25 21 0 42 18 100 85 40 47 84 88 97 92 30 7 214 -12 258 -27 20 -8 35 -22 44 -43 7 -18 21 -44 31 -59 10 -14 18 -42 18 -62 0 -20 4 -36 9 -36 5 0 51 45 102 100 80 87 104 122 177 258 46 86 89 162 95 169 7 6 70 16 144 22 73 5 137 12 142 15 9 6 81 129 81 139 0 3 -15 9 -32 13 l-33 7 25 9 c56 22 752 28 774 7z m-6495 -5256 c93 -357 129 -510 170 -728 l49 -260 -8 -215 -9 -215 96 -174 96 -174 -48 -171 -48 -171 -9 -305 -10 -305 57 -155 c59 -161 97 -334 161 -723 l28 -169 63 -105 c48 -81 75 -144 119 -275 51 -154 60 -198 34 -172 -15 15 -134 233 -203 370 -318 636 -529 1330 -622 2046 -60 463 -63 1049 -9 1533 15 134 48 351 60 388 9 28 23 20 33 -20z"
       id="path1374" />
    <path
       d="M8235 11353 l7 -128 -84 -95 c-56 -63 -92 -114 -108 -152 -13 -32 -21 -60 -19 -63 5 -4 432 14 437 20 6 5 -50 178 -75 235 -14 30 -35 105 -47 165 -24 117 -25 119 -94 140 l-24 7 7 -129z"
       id="path1376" />
    <path
       d="M9963 3244 l-132 -104 -161 -12 -162 -11 -86 -66 c-82 -63 -87 -69 -116 -143 -29 -74 -37 -82 -139 -174 -105 -93 -141 -114 -200 -114 -27 0 -28 -2 -22 -30 6 -27 0 -38 -49 -94 l-56 -64 0 -76 0 -76 28 0 c15 0 90 7 167 15 77 8 147 15 156 15 9 0 86 78 170 173 407 458 499 555 527 561 15 3 47 8 72 12 37 5 56 17 113 73 92 89 93 91 67 162 -13 32 -28 59 -34 59 -6 -1 -70 -48 -143 -106z"
       id="path1378" />
  </g>
  <path
     style="fill:#08143f;fill-opacity:1;stroke-width:3.60237"
     d="m 796.81601,1698.6891 c -36.99491,-3.1897 -86.11531,-9.6004 -107.60466,-14.0434 -19.69278,-4.0716 -25.5707,-7.29 -41.42731,-22.6833 l -18.47846,-17.9385 -106.27005,-32.9865 c -73.05356,-22.676 -112.94295,-36.9529 -127.61874,-45.6764 -66.40423,-39.4717 -163.65693,-129.4287 -216.99395,-200.7156 -42.3518,-56.6048 -46.43114,-65.4271 -53.60292,-115.9261 -3.56141,-25.0772 -9.89377,-52.2597 -15.08092,-64.7369 -11.99027,-28.8414 -10.393958,-57.0275 3.87407,-68.4044 8.4804,-6.762 9.55885,-10.1205 9.55885,-29.7679 0,-21.7163 0.27797,-22.3425 14.33258,-32.286 12.69354,-8.9806 14.34138,-11.8294 14.4095,-24.9116 0.0676,-12.9727 3.85929,-19.6969 31.1367,-55.21799 17.08288,-22.24556 33.01402,-41.1964 35.40252,-42.11299 2.38851,-0.91655 8.5494,-0.067 13.69086,1.88768 7.19785,2.73662 10.44809,2.28355 14.13013,-1.9697 2.63011,-3.03814 21.04549,-34.94016 40.92306,-70.89344 l 36.14105,-65.36956 19.04542,-4.22933 c 35.25314,-7.8285 40.10653,-20.38307 22.37185,-57.87068 -8.03716,-16.98898 -14.95651,-25.50391 -28.81616,-35.46109 L 317.70016,684.2718 V 660.16629 636.06075 L 294.28472,624.51409 270.86929,612.9674 v -32.58175 c 0,-24.14579 1.53138,-34.91894 5.91456,-41.60851 8.16573,-12.46246 2.31694,-24.12478 -18.36348,-36.6162 -11.43068,-6.90438 -16.90047,-12.94297 -18.71005,-20.65566 -2.61942,-11.16426 -2.2002,-49.83946 0.64527,-59.53101 0.87258,-2.97195 -5.77131,-14.66926 -14.76421,-25.99401 l -16.35072,-20.59049 -18.71834,6.71464 c -23.3766,8.38561 -41.32075,11.67836 -43.59438,7.99958 -0.95697,-1.54841 11.40914,-20.5429 27.48026,-42.20992 34.361,-46.32541 102.55956,-117.18782 149.68581,-155.53258 l 33.41166,-27.18574 24.22634,2.14566 c 13.32448,1.18012 31.79055,3.23464 41.03571,4.5656 16.72564,2.40788 16.84493,2.35041 23.94559,-11.53724 10.27552,-20.09706 24.15814,-33.77023 34.28758,-33.77023 4.80845,0 17.7158,-4.10806 28.68301,-9.12902 15.03775,-6.88451 31.30885,-10.25037 66.17869,-13.68984 45.0433,-4.442943 46.54488,-4.869943 58.104,-16.522743 10.82168,-10.909375 13.18329,-11.75125 26.8391,-9.567602 18.30518,2.927121 23.53568,6.986763 27.19461,21.107114 l 2.82913,10.917951 13.52335,-14.07277 c 7.43782,-7.74003 19.16636,-24.02574 26.0634,-36.190467 12.92658,-22.799378 18.37441,-26.373349 40.3409,-26.465182 9.87908,-0.0413 12.73022,-2.071183 17.77848,-12.657502 l 6.01247,-12.6083117 h 46.25619 46.25618 l -5.42813,10.4968607 c -2.98546,5.773273 -6.46576,19.325274 -7.73394,30.115557 l -2.3058,19.618699 11.65761,4.063861 c 13.39038,4.667917 18.03475,2.950579 18.03475,-6.668699 0,-3.735198 3.6474,-10.79109 8.10534,-15.679758 l 8.10534,-8.888492 54.03562,25.217668 54.03561,25.217669 35.8624,-2.187088 c 27.5137,-1.677932 37.5772,-3.724099 43.2285,-8.789395 4.0514,-3.631273 9.3926,-7.749771 11.8694,-9.152219 2.5168,-1.42507 26.1785,7.873167 53.6392,21.078338 45.0875,21.681481 51.0759,23.628241 72.6829,23.628241 23.5368,0 23.5669,0.0133 68.8416,30.29256 41.1919,27.54877 114.9042,86.01736 121.1171,96.07003 3.4874,5.64278 -6.6226,2.35047 -53.2002,-17.32448 -21.2399,-8.972 -47.177,-22.00358 -57.638,-28.95907 -18.3992,-12.23356 -20.6439,-12.7674 -68.7709,-16.3556 l -49.7509,-3.70927 -11.1721,11.17216 c -10.9863,10.98626 -11.0854,11.40106 -5.9577,24.92913 3.9677,10.46786 7.4646,14.02104 14.6259,14.86145 9.5946,1.12597 13.5983,8.45798 13.6983,25.08596 l 0.049,8.17856 -14.266,-7.27797 c -7.8463,-4.00288 -15.1561,-7.27796 -16.244,-7.27796 -1.0879,0 -6.8552,7.92651 -12.8163,17.61446 l -10.8383,17.61447 -15.1038,-3.3936 c -8.3071,-1.86648 -17.443,-5.33496 -20.302,-7.70773 -5.7869,-4.80272 -17.8359,-3.83315 -24.9577,2.00832 -3.3039,2.70998 -5.8664,2.60793 -8.8258,-0.35152 -5.8558,-5.85582 -31.5482,-5.43811 -31.5482,0.51293 0,2.5757 1.8766,6.55967 4.1702,8.85326 3.1586,3.15866 3.0834,5.47963 -0.3102,9.56861 -2.4642,2.96915 -3.4345,7.09052 -2.1564,9.15862 3.294,5.32985 -1.3602,4.74451 -28.2061,-3.54733 -13.9237,-4.30062 -27.4525,-6.35538 -32.8782,-4.9936 -5.07063,1.27264 -18.13371,12.26109 -29.02909,24.41878 l -19.80971,22.10489 12.62953,11.70771 c 8.05001,7.46247 16.31774,11.70772 22.80105,11.70772 5.5943,0 13.31822,2.38005 17.16412,5.28901 4.1303,3.12394 15.1358,5.33587 26.8856,5.40356 17.1422,0.0987 21.8212,-1.47496 33.8385,-11.38061 18.9511,-15.6211 43.0548,-21.76197 59.2828,-15.10342 6.6812,2.74139 19.6497,4.98478 28.819,4.98533 l 16.6713,10e-4 22.2392,44.12811 c 12.2316,24.27042 23.283,47.77549 24.5588,52.23342 2.0417,7.13447 4.6789,8.10535 22.0166,8.10535 18.3167,0 19.4373,-0.48539 15.9903,-6.92618 -2.0387,-3.80937 -8.465,-10.69891 -14.2807,-15.31009 -10.2869,-8.15639 -33.9816,-59.06505 -30.3098,-65.12132 3.8744,-6.39018 10.9331,-1.60616 20.1535,13.65887 6.0251,9.97487 16.9118,20.73048 27.8922,27.55629 15.7603,9.79713 18.01,12.6929 18.01,23.1824 0,13.00047 8.0765,20.61355 27.8997,26.29878 11.9899,3.43865 28.3064,-2.61223 39.0467,-14.48014 5.1209,-5.65858 5.5072,-8.5172 2.1475,-15.89105 -3.9142,-8.59065 -3.5709,-8.99131 7.7033,-8.99131 8.9487,0 15.081,3.36008 25.3785,13.90574 7.4683,7.64817 21.711,17.71475 31.6504,22.37014 16.9098,7.92011 17.9338,9.1545 15.9253,19.19702 -1.7425,8.71267 -0.075,12.87024 8.8615,22.09008 8.7704,9.04877 10.0508,12.15193 6.2986,15.26593 -3.5303,2.92985 -15.5201,-1.21645 -47.8861,-16.5599 l -43.1767,-20.4684 -32.4214,1.8193 -32.4214,1.81927 -1.0647,16.29808 -1.0648,16.29812 26.2814,15.33571 c 14.4547,8.43463 43.3026,23.80939 64.1063,34.16618 l 37.8249,18.83048 -1.0292,15.84159 c -1.1316,17.41654 -10.4424,36.33078 -17.8844,36.33078 -2.6135,0 -19.0455,-13.77909 -36.5154,-30.62019 -17.47,-16.8411 -34.2399,-30.62019 -37.2665,-30.62019 -3.0266,0 -14.8972,-7.29481 -26.3791,-16.21068 -25.7887,-20.02535 -39.6986,-21.68191 -45.3732,-5.40357 -4.4802,12.8518 -12.8905,14.16159 -15.8263,2.46471 -1.2728,-5.07156 -16.0638,-18.84233 -37.7252,-35.12315 -19.5973,-14.72939 -35.7072,-28.52451 -35.7998,-30.65578 -0.2255,-5.19127 13.6782,-17.15934 26.0518,-22.42496 9.6161,-4.09212 9.7856,-4.60117 4.3134,-12.95285 -3.1329,-4.78132 -9.9123,-9.75155 -15.0654,-11.04488 -5.1532,-1.29336 -16.0101,-6.80517 -24.1265,-12.24843 -13.2722,-8.90111 -16.3025,-9.5526 -30.1165,-6.47509 -14.7436,3.28461 -16.0437,2.84638 -32.4214,-10.92734 -15.6181,-13.1349 -19.3482,-14.54192 -44.0797,-16.62694 -14.8598,-1.25276 -34.832,-4.94833 -44.38273,-8.21237 -26.32306,-8.99617 -50.34319,-5.67417 -74.49564,10.30276 -10.89718,7.20853 -27.15877,14.72813 -36.13686,16.71023 -22.5567,4.97981 -58.29936,21.74389 -64.31338,30.16437 -4.16985,5.83837 -7.72968,6.61912 -21.719,4.76339 -16.49376,-2.18798 -16.99154,-1.95026 -34.99473,16.71142 -15.17594,15.73099 -19.02151,22.4942 -22.75041,40.01096 -3.05276,14.34059 -8.18618,25.28176 -16.05668,34.22256 -25.81635,29.32711 -27.37618,32.57008 -27.37618,56.91713 0,21.8417 1.64787,26.23995 32.99531,88.06538 18.14743,35.79154 36.38445,67.18386 40.52671,69.76071 4.1423,2.57689 14.55853,5.72832 23.14721,7.0032 9.35158,1.38814 23.80233,7.92854 36.02375,16.30427 18.32218,12.55684 23.35336,14.20121 49.22695,16.08908 22.83362,1.66606 30.06117,3.6054 34.79999,9.33771 3.28954,3.97918 9.29946,7.2349 13.35534,7.2349 4.10998,0 11.82757,5.5812 17.43445,12.60821 7.70847,9.66092 12.74015,12.60824 21.52505,12.60831 12.37156,1.1e-4 13.29582,1.48706 17.42757,28.03703 2.65614,17.06809 -0.35087,23.52124 -22.26181,47.77397 -6.94502,7.68729 -11.82195,15.28002 -10.83764,16.8727 0.98435,1.59265 4.43143,28.37987 7.66023,59.52708 7.33354,70.74482 5.24917,80.92392 -19.9908,97.62582 l -16.93696,11.2076 -18.31685,57.702 -18.31685,57.7021 5.67669,28.819 c 7.3148,37.1353 3.02845,68.2109 -12.38684,89.8029 -10.17984,14.2587 -21.58496,59.2285 -16.93112,66.7585 4.08001,6.6016 22.9606,7.8122 33.86841,2.1715 14.82863,-7.6681 44.40644,-7.0021 71.90967,1.6192 12.55972,3.9371 26.14596,7.1583 30.19168,7.1583 4.04577,0 27.19437,-11.3475 51.44137,-25.2166 24.2471,-13.8692 48.2349,-25.2166 53.3063,-25.2166 13.5055,0 20.5404,-9.0262 20.5559,-26.3746 0.01,-8.6022 3.0472,-20.0284 7.093,-26.6638 6.8605,-11.2518 9.7449,-12.6248 35.639,-16.9641 6.6689,-1.1176 17.6675,-6.8981 24.4414,-12.8456 8.1046,-7.1159 16.2767,-10.8524 23.8985,-10.9269 9.5748,-0.094 17.717,-5.8691 46.9774,-33.322 l 35.3951,-33.2087 6.2734,-32.9161 c 4.8969,-25.6934 9.3427,-37.6564 20.2615,-54.5197 13.2506,-20.4646 14.8869,-21.7102 31.0333,-23.6225 20.8613,-2.4707 39.7834,-11.8383 75.5995,-37.4261 22.8568,-16.3294 29.8994,-23.9201 42.1528,-45.4327 20.8672,-36.63574 21.1107,-37.68472 9.4279,-40.6169 -5.4401,-1.36538 -12.477,-0.83295 -15.6376,1.18316 -4.3766,2.79177 -9.3965,1.05506 -21.0567,-7.28494 -14.8428,-10.61641 -15.3132,-11.5642 -15.4103,-31.05362 -0.083,-16.61383 -1.952,-22.55029 -10.7696,-34.20318 -20.8458,-27.54916 -26.2404,-48.66679 -27.9687,-109.48493 -0.8618,-30.32699 -0.4945,-63.72284 0.8161,-74.21299 2.2598,-18.08641 2.861,-18.98163 11.6222,-17.30682 l 9.2392,1.76621 -2.4481,31.29372 c -1.8531,23.68922 -1.1536,34.7287 2.8787,45.42901 2.9296,7.77439 6.1418,29.94535 7.1381,49.26878 2.5944,50.32201 13.0705,82.87004 34.4936,107.16882 16.8191,19.07662 17.141,19.24273 25.6862,13.25746 4.7594,-3.33368 13.6487,-6.06125 19.7539,-6.06125 9.5794,0 16.0095,-5.47713 46.9299,-39.97484 40.9162,-45.64994 40.1525,-44.56209 41.6825,-59.37527 0.9043,-8.75475 -2.9328,-16.59344 -18.2102,-37.20155 -19.2131,-25.91707 -20.9467,-26.87941 -36.6835,-20.36368 -4.6206,1.91315 -6.2992,-0.63856 -8.1872,-12.4452 -1.4282,-8.93155 -6.1841,-18.66099 -11.9309,-24.40782 -7.8856,-7.88553 -9.415,-12.40816 -8.7491,-25.87161 0.8268,-16.71548 10.6822,-31.93509 17.8221,-27.52239 2.0253,1.25171 7.9012,14.82226 13.0575,30.15674 9.1916,27.33568 10.1189,28.54345 47.4146,61.75854 20.9218,18.63267 39.3725,37.38335 41.0015,41.66813 1.6291,4.2848 6.65,22.82853 11.1576,41.20828 6.7958,27.71023 9.6226,33.96031 16.5507,36.59437 8.0602,3.06446 8.3416,4.54666 7.9733,41.99129 -0.21,21.34807 -1.5204,55.83591 -2.9122,76.63958 -1.9328,28.8899 -1.4171,39.1684 2.1829,43.5122 6.8539,8.2699 6.1786,12.5193 -9.5471,60.0671 -45.2968,136.9588 -114.6023,246.6367 -220.233,348.525 -128.3714,123.8232 -289.5328,202.3599 -465.81442,226.9992 -39.71427,5.551 -136.82976,9.4977 -167.86437,6.8219 z m 417.42519,-296.9023 c 12.1803,-0.032 16.1549,-3.4233 59.093,-50.4332 28.1883,-30.8614 48.6798,-50.3999 52.8586,-50.3999 9.9832,0 29.0004,-17.375 28.9362,-26.4374 -0.1286,-18.1309 -5.5402,-18.8718 -25.8482,-3.5391 -16.1864,12.2208 -23.0092,14.9578 -42.6146,17.0949 -25.4069,2.7695 -38.0885,10.6454 -47.9985,29.8091 -7.4535,14.4135 -33.139,37.1082 -41.9985,37.1082 -4.6364,0 -7.1943,2.4048 -7.1943,6.7636 0,3.72 -2.4316,8.7817 -5.4036,11.2482 -3.1562,2.6194 -5.4036,10.4814 -5.4036,18.9033 0,14.2277 0.1492,14.3889 11.2575,12.1672 6.1916,-1.2383 17.1338,-2.2665 24.316,-2.2849 z M 1127.3511,249.68246 c 3.5003,-2.2223 2.4842,-8.69751 -4.5029,-28.69618 -4.9628,-14.20447 -9.0232,-28.17257 -9.0232,-31.04022 0,-5.82366 -9.5013,-16.53565 -14.6668,-16.53565 -1.8398,0 -3.3451,8.66463 -3.3451,19.25474 0,14.9923 -1.6766,20.77201 -7.5735,26.10871 -7.978,7.21993 -17.6431,23.71329 -17.6431,30.10753 0,4.45356 49.8926,5.15778 56.7546,0.80107 z"
     id="path2162"
     transform="scale(0.75)" />
  <path
     style="fill:#112880;fill-opacity:0.80000001;stroke-width:3.60237"
     d="M 90.656087,1220.5818 C 51.708028,1139.1607 21.782967,1035.2102 11.64456,946.11981 4.7289122,885.34913 7.7153156,770.50233 17.592852,717.36901 l 2.343897,-12.60831 4.765765,18.01187 C 40.707053,783.26061 50.3561,842.52335 48.526,869.09224 c -1.82559,26.50342 -1.437337,28.25108 11.359927,51.13472 l 13.250122,23.69344 -5.855783,19.11158 c -8.891399,29.01894 -11.471489,103.23312 -4.262186,122.59822 7.813436,20.9879 15.428651,52.3508 22.076099,90.9191 3.657477,21.2206 10.046566,41.3651 18.627451,58.7315 7.18332,14.5379 12.07881,27.4143 10.87887,28.6143 -1.19993,1.1999 -11.97492,-18.2911 -23.944413,-43.3133 z"
     id="path2164"
     transform="scale(0.75)" />
  <path
     style="fill:#ffffff;fill-opacity:1;stroke-width:3.60237"
     d="m 116.23245,1253.2455 c -2.47029,-8.4333 -8.25653,-21.855 -12.85831,-29.826 -5.204954,-9.0158 -11.892669,-32.9633 -17.696592,-63.3684 -5.131342,-26.8816 -12.695796,-58.4549 -16.809895,-70.1631 -6.380912,-18.1591 -7.250363,-27.3755 -5.916339,-62.7148 0.906887,-24.0241 4.202956,-50.55114 7.846117,-63.1462 L 77.079702,942.30807 64.112734,918.71759 C 51.49529,895.76294 51.162204,894.16359 51.755576,859.38306 52.26778,829.36043 50.206688,814.41324 38.878975,766.00107 31.461448,734.30017 23.2941,706.88731 20.729313,705.0836 16.954282,702.42878 17.345618,695.91034 22.783869,670.86104 39.559506,593.59025 73.96546,504.49445 114.64255,432.98874 l 23.68451,-41.63465 15.78051,1.25877 c 8.67928,0.69232 23.3899,-1.33402 32.69028,-4.50297 9.30037,-3.16896 18.16826,-5.76174 19.70642,-5.76174 1.53817,0 9.00563,8.14237 16.59436,18.09416 13.50322,17.708 13.74764,18.57292 11.45208,40.52672 -1.29009,12.3379 -0.72022,29.88289 1.26639,38.98884 2.93992,13.47569 5.92636,17.80266 16.05025,23.25473 6.84104,3.68415 15.49306,10.582 19.22671,15.32857 6.17494,7.85015 6.30875,9.55776 1.48066,18.89428 -3.5605,6.88524 -5.30623,21.2925 -5.303,43.76502 l 0.005,33.50086 23.40582,12.60831 23.40582,12.60831 0.005,24.40472 0.005,24.40471 16.23009,9.80334 c 12.44969,7.51989 19.16236,15.38346 28.819,33.76007 6.92414,13.17621 12.58915,27.11585 12.58915,30.97698 0,10.72989 -13.10168,20.35886 -33.1286,24.34755 l -18.08723,3.60238 -30.50878,55.83681 c -46.04216,84.26581 -45.3449,83.35809 -61.98453,80.6973 l -13.88025,-2.21957 -32.85651,42.71516 c -29.12834,37.8683 -32.85906,44.3968 -32.87892,57.5353 -0.0198,13.2138 -1.58435,15.9026 -14.43192,24.806 -14.22159,9.8555 -14.4095,10.2808 -14.4095,32.6108 0,20.0981 -1.02554,23.3721 -9.18193,29.3136 -14.499322,10.5621 -16.152088,40.2037 -4.12718,74.0194 8.49571,23.8911 18.99115,77.5186 15.7964,80.7134 -0.73312,0.7331 -3.35409,-5.5671 -5.82438,-14.0004 z"
     id="path2166"
     transform="scale(0.75)" />
  <path
     style="fill:#ffffff;fill-opacity:1;stroke-width:3.60237"
     d="m 971.53119,1394.6155 c -22.57018,-8.3284 -62.99792,-9.2752 -77.42749,-1.8134 -14.37574,7.434 -29.74347,1.9032 -27.33201,-9.8368 0.9222,-4.4896 2.7157,-14.5702 3.98556,-22.4014 1.26986,-7.8311 7.17273,-21.0113 13.11748,-29.2892 15.49438,-21.5755 20.357,-58.3097 12.60294,-95.2077 l -5.66851,-26.9738 18.72485,-56.9258 18.72486,-56.9257 16.56655,-10.6307 c 23.28643,-14.9428 26.41945,-27.0311 21.33368,-82.3124 -2.15899,-23.46771 -5.27913,-51.23193 -6.93364,-61.69831 -2.94723,-18.64409 -2.73561,-19.32854 10.44157,-33.77291 19.40748,-21.27383 22.42896,-28.63939 19.77339,-48.20233 -3.8285,-28.2035 -4.65468,-29.58242 -17.72442,-29.58242 -9.41006,0 -13.97441,-2.66986 -21.55482,-12.60831 -6.13435,-8.04255 -12.65259,-12.60831 -18.00005,-12.60831 -4.61077,0 -10.60728,-3.21264 -13.32558,-7.13915 -4.00938,-5.79147 -10.72257,-7.57799 -35.56254,-9.46384 -28.09815,-2.13318 -32.13198,-3.4487 -48.97497,-15.97192 -12.47449,-9.27511 -24.00176,-14.49408 -35.98134,-16.29051 -23.9377,-3.5897 -30.23679,-11.2548 -64.12977,-78.0371 -39.60408,-78.03536 -40.92686,-95.87457 -9.66852,-130.39113 14.13161,-15.60459 18.48067,-23.57781 22.07724,-40.47461 3.72315,-17.49143 7.5725,-24.24839 22.81317,-40.04508 17.64798,-18.29182 18.89152,-18.91961 33.22038,-16.77086 12.01852,1.80229 16.18863,0.85929 21.64774,-4.89528 8.94386,-9.42791 49.91628,-28.02081 67.8086,-30.77089 7.81884,-1.20177 22.81671,-8.10852 33.32859,-15.34833 23.33912,-16.07427 43.57028,-19.27292 68.34551,-10.8058 9.56876,3.27018 29.55566,6.94959 44.41546,8.17646 24.6575,2.03579 28.513,3.47225 44.1318,16.44235 16.3011,13.53669 17.9572,14.0957 34.8683,11.76982 15.4505,-2.12499 19.5322,-1.23385 31.4538,6.86707 7.5346,5.11992 16.3139,9.30894 19.5095,9.30894 5.3593,0 17.734,10.5763 17.734,15.1567 0,1.0896 -4.9053,4.01292 -10.9006,6.49626 -5.9953,2.48335 -14.1025,9.01182 -18.0159,14.50772 l -7.1153,9.99254 17.1153,14.13314 c 9.4134,7.77323 26.4586,21.10579 37.8783,29.6279 11.435,8.53356 21.7255,19.32956 22.9054,24.03062 3.2629,13.00036 17.6186,11.54709 22.4358,-2.27126 5.2985,-15.1995 14.7428,-13.90257 39.3324,5.40129 11.3556,8.91465 23.3363,16.20946 26.6237,16.21069 3.2875,10e-4 15.4455,9.90062 27.0178,21.99858 18.6092,19.45445 47.6195,42.84644 53.1373,42.84644 5.1584,0 17.3275,-31.78905 17.8027,-46.50548 l 0.5339,-16.53608 -46.8309,-23.41544 c -25.757,-12.87849 -54.5309,-28.02741 -63.9421,-33.66427 -15.6496,-9.37335 -17.1113,-11.42707 -17.1113,-24.04172 v -13.79289 l 29.7196,-1.44064 c 29.6481,-1.43718 29.817,-1.39444 70.2166,17.77478 45.3956,21.53969 53.9829,23.65846 59.7721,14.74771 3.2853,-5.05672 1.9599,-8.36499 -7.2161,-18.01187 -8.8923,-9.34844 -10.8829,-14.096 -9.5277,-22.72357 1.6189,-10.30766 0.5041,-11.48393 -20.3147,-21.43442 -12.3578,-5.90648 -26.008,-15.74676 -31.0948,-22.41581 -7.8627,-10.30858 -11.1959,-11.88755 -25.0944,-11.88755 -16.3042,0 -18.7168,2.65312 -12.6764,13.93984 4.2262,7.89668 1.518,12.11733 -13.6674,21.30028 -10.0566,6.08144 -14.0393,6.68449 -23.4155,3.5456 -17.0633,-5.71233 -23.9061,-13.3007 -23.9061,-26.51089 0,-10.42548 -2.0588,-12.94571 -17.3938,-21.29209 -12.5191,-6.81373 -20.7191,-14.95354 -29.2587,-29.04383 -6.5257,-10.7673 -12.9783,-19.5769 -14.339,-19.5769 -1.3608,0 -5.436,2.16572 -9.056,4.81271 -6.2894,4.59901 -6.0638,6.15581 5.0825,35.05894 8.4214,21.83758 15.3176,33.47722 24.8057,41.86821 l 13.1415,11.62197 -15.2414,0.14997 c -13.3332,0.1312 -15.5261,-0.98403 -17.5146,-8.90704 -1.2503,-4.98134 -11.8181,-27.05133 -23.4841,-49.04443 -11.666,-21.9931 -21.2109,-41.42295 -21.2109,-43.17745 0,-1.75451 -8.1574,-3.19001 -18.1276,-3.19001 -9.9702,0 -23.853,-2.39224 -30.8508,-5.31608 -18.0149,-7.52711 -43.0546,-1.65392 -61.9674,14.53477 -12.2514,10.4867 -17.167,12.37792 -31.9207,12.281 -9.5916,-0.063 -20.5859,-2.49462 -24.4319,-5.40357 -3.846,-2.90895 -12.05328,-5.28899 -18.23848,-5.28899 -7.73448,0 -14.40481,-3.29728 -21.36317,-10.56024 L 958.048,336.01105 976.91594,316.061 c 10.37736,-10.97254 21.551,-20.80164 24.83026,-21.84245 3.2794,-1.04081 17.2702,1.34134 31.0907,5.29368 29.7197,8.49906 35.5815,8.88899 33.0132,2.19605 -1.0532,-2.7445 0.5602,-8.52361 3.5852,-12.84248 5.0145,-7.15913 4.911,-8.29879 -1.1723,-12.9073 -6.2359,-4.72411 -6.0088,-5.06233 3.4709,-5.1694 5.5789,-0.063 13.1323,1.48505 16.7854,3.44015 4.6738,2.50132 10.4254,1.97392 19.4093,-1.77975 11.5556,-4.82825 13.0831,-4.76985 16.0968,0.61541 2.2648,4.04684 9.5195,6.40049 22.6819,7.35871 l 19.3521,1.40882 9.7821,-16.40881 9.7821,-16.40882 11.8322,7.21402 c 20.4242,12.45259 24.399,7.93439 18.5866,-21.12775 -1.7784,-8.89188 -4.0859,-11.25742 -10.981,-11.25742 -6.4282,0 -10.0392,-3.08657 -13.6972,-11.70772 -4.6845,-11.0404 -4.4179,-12.28999 4.6769,-21.92336 l 9.6445,-10.21563 43.2285,2.41324 c 32.6061,1.82024 46.3266,4.12354 55.8368,9.37344 35.323,19.49946 94.9129,47.07174 118.8783,55.00511 24.4534,8.09487 29.3566,11.4274 51.6574,35.11 110.2959,117.12962 189.3359,286.14114 212.918,455.28333 15.9167,114.16229 13.3853,194.04398 -9.2138,290.75493 -6.8777,29.4324 -7.7677,31.1129 -14.3131,27.0252 -3.8387,-2.3973 -6.2248,-6.3253 -5.3024,-8.729 0.9224,-2.4037 2.7985,-37.2976 4.1691,-77.54202 l 2.4921,-73.17176 -9.2303,-4.2056 c -7.2348,-3.29639 -10.093,-8.34025 -13.2216,-23.33182 -11.2203,-53.76537 -14.1524,-58.82848 -55.8016,-96.356 -38.087,-34.31774 -38.7836,-35.23357 -48.2642,-63.45111 -5.7985,-17.25826 -11.7935,-29.02989 -15.0927,-29.63552 -10.921,-2.00475 -19.0365,8.47146 -21.5122,27.7697 -2.1881,17.05606 -1.4705,19.99743 7.6911,31.52575 5.5574,6.99304 11.1691,18.62284 12.4706,25.84402 3.3289,18.46955 4.1673,19.16016 15.897,13.09456 l 10.4655,-5.41196 18.149,23.97424 c 27.4153,36.21478 27.2084,36.93064 -28.2175,97.64911 -23.3008,25.52581 -32.6025,33.33439 -39.7569,33.37506 -5.1367,0.0288 -13.3922,2.11362 -18.3455,4.63204 -8.4993,4.32138 -9.8665,3.5585 -24.3047,-13.562 -20.1247,-23.86343 -29.9794,-56.18657 -32.4391,-106.39913 -1.0751,-21.94783 -4.0045,-42.07196 -6.9789,-47.94289 -3.9357,-7.76834 -4.5555,-17.8904 -2.6692,-43.58802 l 2.4569,-33.47009 -11.8364,-2.36727 c -6.51,-1.30201 -12.7932,-1.41112 -13.9627,-0.24244 -1.1696,1.16861 -2.1264,36.43809 -2.1264,78.37669 0,71.68531 0.5002,77.43006 8.352,95.92361 4.5936,10.81944 13.1042,26.13368 18.9125,34.03167 8.3603,11.36819 10.5719,18.15229 10.6156,32.56273 0.063,20.91474 0.5928,21.90186 19.185,35.76791 12.1117,9.03284 14.8697,9.7665 22.1224,5.88498 5.0326,-2.69339 10.4243,-3.2171 13.733,-1.33392 4.5676,2.59976 2.9198,7.4635 -10.2038,30.11826 -13.6727,23.60262 -19.8899,30.09352 -49.1839,51.34952 -31.6659,22.9768 -58.3684,35.1074 -77.2809,35.1074 -6.0223,0 -12.1858,5.843 -23.0692,21.8694 -11.8378,17.432 -16.1672,28.4292 -21.3365,54.1974 -7.2476,36.1281 -7.0262,35.8019 -51.4076,75.7251 -22.677,20.399 -34.176,28.3268 -41.0872,28.3268 -5.2785,0 -15.1981,4.272 -22.0437,9.4934 -7.3715,5.6225 -18.911,10.222 -28.3008,11.2804 -22.9462,2.5864 -37.3838,19.6052 -37.3838,44.0676 0,18.7772 -5.4225,25.218 -21.2311,25.218 -4.0124,0 -27.2192,11.3464 -51.5707,25.2143 -24.3515,13.8678 -47.5176,25.0897 -51.48018,24.9374 -3.96261,-0.1523 -15.31009,-3.2677 -25.21663,-6.9232 z"
     id="path2168"
     transform="scale(0.75)" />
  <path
     style="fill:#ffffff;fill-opacity:1;stroke-width:3.60237"
     d="m 1074.1989,246.10633 c 0,-1.62467 5.6737,-9.58244 12.6083,-17.68393 10.4397,-12.19643 12.6083,-17.57461 12.6083,-31.26861 0,-15.0321 5.7116,-22.99839 8.6293,-12.03566 0.6591,2.47663 4.6609,15.96546 8.8929,29.97517 4.2319,14.00971 7.6944,27.38353 7.6944,29.71959 0,2.85709 -8.2541,4.24739 -25.2166,4.24739 -13.8691,0 -25.2166,-1.32928 -25.2166,-2.95395 z"
     id="path2170"
     transform="scale(0.75)" />
  <path
     style="fill:#ffffff;fill-opacity:1;stroke-width:3.60237"
     d="m 1171.8973,88.489077 c -26.5088,-12.732453 -49.7172,-23.149912 -51.5742,-23.149912 -1.8571,0 -8.6894,4.052419 -15.1831,9.005379 -9.8069,7.480108 -17.2405,9.375292 -43.8887,11.189401 l -32.0821,2.18403 -57.32277,-26.181592 -57.32276,-26.181589 -8.42058,9.789504 c -4.63132,5.384229 -8.42058,13.048922 -8.42058,17.032652 0,5.776365 -2.00613,7.012314 -9.90653,6.103273 -9.04442,-1.040672 -9.88388,-2.412583 -9.64626,-15.764562 0.14315,-8.04358 3.38529,-22.354705 7.20475,-31.802497 l 6.94448,-17.1778046 27.01781,2.2556396 c 103.89224,8.673666 200.81464,35.498052 294.68464,81.557376 l 49.3422,24.210765 -21.6143,0.0399 c -19.2161,0.0357 -26.9618,-2.52856 -69.812,-23.109983 z"
     id="path2172"
     transform="scale(0.75)" />
  <path
     style="fill:#ffffff;fill-opacity:1;stroke-width:3.60237"
     d="m 416.73009,167.71066 c -2.00077,-0.84073 -15.77985,-2.74377 -30.62019,-4.22899 l -26.98243,-2.70039 32.42137,-21.4773 C 471.05808,86.633681 584.94271,40.045817 682.0611,20.461372 738.0906,9.1627188 780.38919,5.125039 783.86177,10.743818 c 4.12486,6.674179 -4.67733,18.571598 -13.74,18.571598 -21.55535,0 -29.98278,4.251335 -38.19973,19.270321 -4.49926,8.223732 -14.57852,23.585148 -22.39837,34.136482 l -14.21793,19.184241 -5.98227,-11.979491 c -5.21222,-10.437474 -8.44198,-12.396694 -25.0911,-15.220621 -18.72456,-3.175955 -19.37654,-2.987799 -32.42137,9.356484 -13.13437,12.429018 -13.93581,12.65358 -59.88318,16.779128 -35.69075,3.20461 -51.15149,6.27869 -66.17866,13.15835 -10.78442,4.93727 -23.29687,8.97685 -27.80546,8.97685 -8.7817,0 -26.5359,17.79645 -35.98675,36.07238 -5.24811,10.14873 -14.29486,13.25474 -25.22686,8.66112 z"
     id="path2174"
     transform="scale(0.75)" />
  <path
     style="fill:#ffffff;fill-opacity:1;stroke-width:3.60237"
     d="m 1180.4525,1398.1913 c -3.77,-6.1 13.2403,-39.291 20.2229,-39.4596 8.4264,-0.2034 37.5277,-26.9528 42.5723,-39.1317 6.9129,-16.6891 23.2349,-26.335 48.3546,-28.5764 18.2761,-1.6308 24.8077,-4.1417 37.3106,-14.343 14.4756,-11.8109 22.6688,-12.9697 22.6688,-3.206 0,7.2199 -19.4772,23.8768 -27.9196,23.8768 -5.3393,0 -21.7667,15.5181 -53.388,50.4332 -42.6478,47.09 -46.5414,50.4365 -58.7345,50.4824 -7.1823,0.027 -16.5232,0.9789 -20.7576,2.1151 -4.2343,1.1362 -8.8826,0.1503 -10.3295,-2.1908 z"
     id="path2176"
     transform="scale(0.75)" />
  <path
     style="fill:#ffffff;fill-opacity:1;stroke-width:3.60237"
     d="m 611.29371,1668.9094 c -17.83176,-5.4367 -44.57939,-14.442 -59.43918,-20.0116 -32.1481,-12.0494 -130.77522,-59.8651 -128.3935,-62.2469 0.91588,-0.9158 46.79504,12.3702 101.9537,29.5247 97.6546,30.3707 100.71298,31.6079 116.45177,47.1086 19.56515,19.2693 16.20519,19.8875 -30.57279,5.6252 z"
     id="path2178"
     transform="scale(0.75)" />
  <path
     style="fill:#0e2473;fill-opacity:1;stroke-width:3.60237"
     d="m 747.2312,1691.6508 c -66.86444,-8.5963 -74.33843,-11.0043 -96.2163,-30.9995 -19.14972,-17.5018 -22.1148,-18.789 -98.17876,-42.6233 -150.16,-47.052 -163.15792,-53.2414 -231.92566,-110.44 -68.99713,-57.3894 -156.1515,-155.505 -179.27198,-201.8188 -4.11785,-8.2486 -10.89984,-34.0598 -15.07109,-57.3582 -4.17126,-23.2984 -10.67342,-52.213 -14.44926,-64.2547 -9.68166,-30.8763 -9.14513,-52.9607 1.59729,-65.7467 5.96374,-7.0982 9.33857,-16.9508 11.14074,-32.5247 2.26831,-19.602 4.03772,-23.4495 14.42923,-31.3755 9.09289,-6.9355 12.39463,-12.7064 14.21502,-24.8456 1.84918,-12.3312 8.94105,-24.4561 32.21721,-55.08148 l 29.84608,-39.26963 14.89787,0.94948 14.89786,0.94944 19.4433,-33.37082 c 10.69382,-18.35399 28.65774,-49.94213 39.91984,-70.19594 19.53012,-35.12309 21.17736,-36.99733 35.63952,-40.55089 26.691,-6.55838 33.05368,-11.45505 34.29828,-26.39558 1.75737,-21.09583 -12.82654,-48.625 -36.66045,-69.20169 l -20.29978,-17.52555 v -22.762 -22.76201 l -23.75124,-11.6741 -23.75125,-11.67408 2.32167,-30.62018 c 1.27692,-16.8411 4.04327,-35.04664 6.14745,-40.4568 5.86622,-15.08285 1.35083,-24.9994 -17.94145,-39.40245 -14.85121,-11.08746 -18.04123,-15.59738 -20.08849,-28.40022 -1.33856,-8.37084 -1.42957,-24.31621 -0.20224,-35.43415 2.14906,-19.46785 1.68059,-20.97947 -12.68417,-40.92809 -8.20361,-11.39251 -16.60112,-20.71366 -18.66114,-20.71366 -2.06002,0 -14.90356,3.38915 -28.54119,7.53145 -13.63764,4.14234 -26.47126,6.97297 -28.51916,6.29032 -2.04791,-0.68261 9.63491,-19.06668 25.9618,-40.85342 32.07376,-42.79952 115.21868,-128.74451 155.92403,-161.17507 l 25.22054,-20.09359 27.01389,3.12547 c 50.10978,5.79763 55.10944,5.08753 62.64054,-8.89687 3.65466,-6.7863 10.91282,-16.29165 16.12928,-21.123 13.41726,-12.42678 71.0527,-29.81458 115.64671,-34.889 40.36656,-4.59337 45.07724,-6.09799 55.64264,-17.77261 8.18914,-9.048888 29.19304,-10.14986 40.64246,-2.130379 4.24659,2.974423 8.82139,10.417848 10.16627,16.540949 l 2.44518,11.1329 10.93432,-10.23679 c 6.01385,-5.630229 17.90276,-20.89115 26.41979,-33.913148 18.94099,-28.959648 21.0169,-30.693515 40.62246,-33.928829 12.67374,-2.091419 17.02623,-4.911201 22.87069,-14.816801 l 7.21811,-12.2338147 h 43.25808 c 39.8312,0 43.04294,0.4994159 40.54231,6.3041557 -5.89071,13.674219 -12.60871,52.630625 -9.59568,55.643665 1.73609,1.736078 8.71559,4.058616 15.50995,5.161195 11.5177,1.869063 12.66141,1.153008 16.90566,-10.584184 8.26165,-22.84727 9.32633,-22.780083 67.78171,4.277524 l 53.63711,24.827366 34.8924,-2.752341 c 24.7058,-1.948809 38.3779,-4.851782 46.8309,-9.943556 13.823,-8.326374 10.1422,-9.185209 65.9741,15.393867 32.8097,14.443961 49.3061,19.610791 68.4451,21.437701 22.6882,2.16569 28.2869,4.4264 55.8368,22.5462 55.9537,36.80125 129.9617,95.14634 123.4444,97.3188 -4.4853,1.49508 -52.5447,-19.16894 -93.0492,-40.00821 -31.3429,-16.12562 -33.4366,-16.65838 -78.9786,-20.09656 l -46.7823,-3.5318 -9.9551,9.53762 c -15.8728,15.20705 -12.2886,35.22765 8.118,45.34616 6.3103,3.12891 9.2819,7.92352 10.0898,16.27967 l 1.1452,11.84456 -10.8728,-5.62255 c -16.5238,-8.54475 -20.904,-7.03895 -31.3437,10.77512 -8.9443,15.26219 -10.3891,16.22995 -20.8655,13.97564 -6.1907,-1.33212 -15.7948,-4.74192 -21.3424,-7.57734 -6.1088,-3.12223 -13.2121,-4.10656 -18.0119,-2.496 -4.3589,1.46263 -17.1644,2.26042 -28.4566,1.77287 l -20.5314,-0.88645 0.5769,14.46468 c 0.3173,7.95557 -0.5312,15.57266 -1.8854,16.92686 -1.3542,1.35421 -11.9339,-0.19543 -23.5103,-3.44362 -34.0063,-9.54166 -37.82768,-8.55451 -62.02631,16.02276 -11.87494,12.06071 -21.59076,24.1702 -21.59076,26.90997 0,13.7041 46.97983,33.70823 79.61077,33.89847 16.5964,0.0969 22.9812,-1.79625 36.0237,-10.68082 21.0395,-14.33202 38.1033,-18.88472 53.852,-14.36803 6.8122,1.95372 20.2031,3.55222 29.7576,3.55222 h 17.3716 l 25.2291,52.23443 25.2291,52.23444 h 19.564 c 10.7602,0 19.564,-1.61639 19.564,-3.592 0,-1.97558 -5.6477,-9.84335 -12.5505,-17.48391 -12.4048,-13.73063 -36.7899,-60.47001 -33.3456,-63.91424 3.9084,-3.9085 59.5457,55.56152 63.6689,68.05502 8.1476,24.68762 48.0933,30.4927 66.8915,9.72101 3.9023,-4.312 5.6217,-10.40344 4.5375,-16.07509 -1.5013,-7.85386 -0.453,-9.13217 7.4898,-9.13217 5.284,0 13.9327,4.4877 20.2141,10.48875 6.0382,5.76884 19.0739,15.19759 28.9682,20.95278 15.2488,8.86977 18.3203,12.49772 20.1593,23.81217 1.1934,7.34146 6.0666,17.59904 10.8294,22.79464 l 8.6597,9.4465 -11.4737,-2.18325 c -6.3105,-1.20078 -27.3844,-9.64147 -46.8308,-18.75706 l -35.3572,-16.57388 -33.322,2.45588 -33.322,2.45589 v 11.88528 c 0,6.5369 -0.9205,14.2842 -2.0456,17.21621 -2.1811,5.68372 30.1471,25.39639 95.2276,58.06676 l 33.7428,16.93883 -2.2458,14.04479 c -2.877,17.99117 -9.401,32.29108 -14.7322,32.29108 -2.295,0 -17.7642,-12.28666 -34.3761,-27.30373 -16.6118,-15.01704 -35.1385,-29.85576 -41.1703,-32.97492 -6.0318,-3.11918 -18.853,-11.09585 -28.4914,-17.72599 -21.3743,-14.70287 -35.7762,-15.69933 -44.0652,-3.04879 -6.562,10.01485 -12.277,11.77421 -12.277,3.77939 0,-2.87459 -16.2107,-18.35439 -36.0238,-34.39958 -19.813,-16.04519 -36.0237,-30.77685 -36.0237,-32.73701 0,-1.96016 7.2436,-7.95952 16.0968,-13.33189 8.8533,-5.37233 16.1481,-11.54302 16.2107,-13.71255 0.183,-6.34032 -11.555,-15.1879 -37.403,-28.19283 -19.3049,-9.71283 -26.9974,-11.76752 -38.3537,-10.24433 -12.3027,1.65014 -16.4168,0.18264 -30.7157,-10.95763 -12.8132,-9.98272 -21.0795,-13.37871 -36.916,-15.16603 -11.2232,-1.26667 -29.8579,-4.60812 -41.4104,-7.4255 -34.14647,-8.32743 -55.88612,-6.74732 -80.25485,5.8331 -11.67173,6.02559 -36.33096,16.45767 -54.79832,23.18244 -18.46739,6.72473 -39.02784,16.38436 -45.68993,21.46579 -9.07341,6.9206 -16.40712,9.23894 -29.22621,9.23894 -15.7257,0 -18.46538,1.40277 -33.78854,17.3003 -12.65814,13.13257 -18.1608,22.59474 -22.84187,39.27788 -4.25451,15.16301 -11.72404,28.92988 -24.0898,44.39924 -17.81872,22.29095 -17.92319,22.57521 -17.92319,48.77032 0,25.56821 0.79159,27.92874 26.72404,79.69368 34.67498,69.21628 44.1689,82.29265 62.12479,85.56706 7.60037,1.38598 25.6559,8.97554 40.1234,16.86571 20.57172,11.21916 32.19622,15.00641 53.33788,17.37735 16.011,1.79557 29.63663,5.38768 33.41826,8.81001 3.51173,3.17808 8.27901,5.77831 10.59393,5.77831 2.31492,0 10.2926,5.43318 17.72822,12.07376 7.43559,6.64054 18.03457,13.1701 23.55323,14.51011 20.242,4.91497 23.01752,36.40535 5.27615,59.86185 -6.43925,8.51357 -13.82271,18.31891 -16.4077,21.78969 -3.87832,5.2073 -3.72165,14.71883 0.89623,54.40703 9.44788,81.19978 7.62209,91.59718 -19.72163,112.30828 -16.02499,12.138 -16.63915,13.3806 -33.90753,68.6046 l -17.58694,56.2428 4.70351,30.2355 c 5.81503,37.3806 3.7031,57.9206 -8.46936,82.3711 -13.61802,27.3543 -20.27961,48.4955 -20.27961,64.3595 0,12.0723 1.26735,14.2061 9.69381,16.321 5.33159,1.3381 16.70234,0.5585 25.26832,-1.7326 21.34951,-5.7101 50.46718,-5.2227 71.636,1.1991 27.9527,8.4797 35.97511,6.8832 78.62631,-15.6474 21.9582,-11.5995 46.4083,-23.1582 54.3335,-25.6861 20.1131,-6.4155 22.2951,-8.846 25.1737,-28.0419 3.8268,-25.519 10.6033,-35.9483 26.1659,-40.2703 7.4267,-2.0625 15.2855,-3.759 17.464,-3.7701 2.1785,-0.011 11.0944,-4.8547 19.8131,-10.7636 8.7187,-5.909 21.1803,-11.7743 27.6923,-13.0341 7.9378,-1.5356 23.3769,-12.6453 46.8427,-33.7073 l 35.0024,-31.4168 6.5529,-32.418 c 9.9616,-49.2818 30.3461,-80.3618 52.7638,-80.4484 22.4275,-0.087 89.8484,-43.5359 107.4673,-69.257 15.7674,-23.01813 26.6657,-46.04819 24.4828,-51.73666 -1.2347,-3.21761 -7.3897,-5.05431 -16.9374,-5.05431 -8.8437,0 -19.9124,-3.03731 -26.9743,-7.40177 -10.7617,-6.6511 -12.2225,-9.57752 -14.4033,-28.85361 -1.6525,-14.60591 -5.8729,-26.88536 -13.2246,-38.47784 -19.5375,-30.80732 -21.6542,-40.897 -23.429,-111.67326 -1.7825,-71.08703 -0.3271,-84.91002 8.7519,-83.11039 4.7767,0.94685 5.8626,7.54669 6.411,38.96488 0.3632,20.80371 2.6197,50.79348 5.0146,66.64393 2.3949,15.85045 5.9274,40.65345 7.8501,55.11778 3.9419,29.65568 15.7177,57.00333 33.56,77.93878 l 12.0834,14.17819 21.2737,-6.52779 c 12.019,-3.688 26.5608,-11.42313 33.4271,-17.78056 25.418,-23.53443 64.8814,-71.40278 67.0661,-81.34991 2.7497,-12.51912 -6.0737,-31.16368 -25.2982,-53.45723 -11.1002,-12.87237 -15.2191,-15.3021 -24.4267,-14.4095 -9.7447,0.94465 -11.3478,-0.22659 -13.3451,-9.75084 -1.2484,-5.95346 -6.916,-17.84519 -12.5946,-26.42608 -9.9919,-15.09881 -10.1575,-16.07661 -5.1386,-30.33974 2.8524,-8.10596 7.0409,-15.33971 9.308,-16.07499 2.3274,-0.75487 8.39,10.10837 13.926,24.95351 9.0287,24.21091 13.0095,29.42467 50.3283,65.91651 l 40.5241,39.62612 8.28,34.0749 c 5.8061,23.89401 10.9222,36.71713 17.1235,42.91837 l 8.8434,8.84347 -1.1493,72.35762 c -0.6322,39.79672 0.1232,78.20442 1.6786,85.35052 7.0633,32.4524 -53.2204,175.8087 -108.6579,258.3915 -125.7914,187.3856 -318.5401,318.1265 -533.9475,362.175 -80.10073,16.3798 -192.31421,21.0066 -269.3297,11.1051 z m 528.86,-339.9141 c 26.9335,-27.9307 51.4583,-50.783 54.4995,-50.783 10.9441,0 24.5934,-16.8986 24.5934,-30.4481 0,-16.1452 -3.9839,-16.1724 -28.7816,-0.196 -10.743,6.9213 -25.278,13.4713 -32.2999,14.5554 -29.0788,4.4896 -39.7762,9.263 -49.6413,22.1506 -19.9951,26.1214 -33.668,40.0179 -43.3176,44.026 -12.9842,5.3932 -22.476,22.6051 -22.476,40.7568 v 14.6108 l 24.2268,-1.9447 24.2267,-1.9447 48.97,-50.783 z M 1130.2109,248.10153 c 2.1178,-5.51904 -14.6242,-62.82421 -20.381,-69.76074 -8.2997,-10.00056 -13.4619,-5.22176 -15.9604,14.7749 -1.3541,10.8379 -4.8197,21.66205 -7.7014,24.05366 -6.669,5.53475 -15.5716,22.63541 -15.5716,29.91085 0,4.57831 5.2042,5.58246 28.932,5.58246 20.0193,0 29.4713,-1.40511 30.6824,-4.56113 z"
     id="path2182"
     transform="scale(0.75)" />
  <g
     transform="matrix(0.07954594,0,0,-0.08995365,195.53244,958.46326)"
     fill="#000000"
     stroke="none"
     id="g2103"
     style="fill:#00022e;fill-opacity:1">
    <path
       d="m 5266.9886,6927.6039 c -578,-30 -1103,-117 -1645,-273 -1452,-417 -2913.99999,-1310 -4362.99999,-2666 l -63,-59 127,-145 c 836,-957 1647,-1692 2479.99999,-2248 943,-628.99996 1905,-1013.99996 2865,-1145.99996 301,-42 447,-51 789,-50 327,0 455,8 740,45 1208,156 2449,703.99996 3695,1633.99996 680.0004,507 1306.0004,1073 2053.0004,1856 l 53,56 -173,155 c -836,750 -1650,1343 -2453.0004,1788 -1285,712 -2585,1069 -3845,1058 -113,-1 -230,-3 -260,-5 z m 676,-913 c 1387,-110 2761,-784 4161.0004,-2043 l 133,-119 -29,-37 c -44,-54 -566.0004,-570 -716.0004,-707 -1098,-1004 -2178,-1602 -3248,-1798 -281,-52 -390,-61 -747,-61 -425,0 -639,24 -1005,115 -1099,271 -2200,1002 -3245,2155 -166,183 -272.99999,305 -282.99999,321 -10,16 307.99999,305 597.99999,544 1163,957 2375,1513 3535,1619 63,6 131,13 150,14 85,9 579,6 696,-3 z"
       id="path2099"
       style="fill:#00022e;fill-opacity:1" />
  </g>
  <path
     style="opacity:1;fill:#0e2473;fill-opacity:1;stroke-width:3.60237"
     d="M 72.338757,1172.0384 C 46.993539,1106.9876 31.516227,1052.9668 18.860021,985.38024 8.6111688,930.64942 10.443301,709.17499 21.046142,721.11449 c 7.034249,7.92104 22.742616,95.67819 24.412021,136.38144 1.666924,40.64265 2.494115,44.53852 13.828465,65.12852 12.044739,21.8805 12.050654,21.91582 6.634815,39.62613 -2.981369,9.74935 -6.343458,37.17892 -7.471315,60.95462 -1.855266,39.1098 -1.158524,46.4891 7.312839,77.451 10.451804,38.2003 24.431382,105.1644 22.382153,107.2136 -0.73049,0.7305 -7.843353,-15.3936 -15.806363,-35.8314 z"
     id="path2847"
     transform="scale(0.75)" />
  <path
     style="opacity:1;fill:#000000;fill-opacity:1;stroke-width:1.35089"
     d="m 618.23629,766.8258 c -20.51176,-3.27749 -45.79283,-13.89605 -61.52054,-25.83992 -33.18669,-25.20245 -53.14245,-64.33178 -54.92074,-107.68883 -2.62133,-63.91116 34.6246,-119.84849 92.76933,-139.32444 29.36313,-9.83537 58.56466,-9.07428 87.28065,2.27483 13.01091,5.14216 29.64121,15.16238 29.4473,17.74282 -0.0855,1.13778 -11.70103,18.72085 -25.8123,39.07348 -39.86134,57.49191 -50.52118,73.42432 -49.38027,73.80462 1.02918,0.34306 11.49229,-2.2869 59.81278,-15.03435 13.00232,-3.43014 33.81757,-8.92134 46.25613,-12.20265 12.43854,-3.28131 22.88612,-5.52819 23.21687,-4.99305 1.93875,3.13699 3.73065,27.10956 3.04103,40.68507 -1.74893,34.43229 -14.6065,64.86982 -38.13978,90.28795 -16.42375,17.73917 -40.23807,32.07411 -63.4184,38.17449 -10.64571,2.80163 -39.02243,4.57546 -48.63206,3.03998 z"
     id="path2849" />
</svg>
